<svg aria-hidden="true" style="position:absolute;width:0;height:0" xmlns="http://www.w3.org/2000/svg" overflow="hidden"><defs><symbol id="icon-logout" viewBox="0 0 32 32"><path fill="var(--color1, #bdbdbd)" d="M20.052 23.236h2.498v4.999a3.752 3.752 0 0 1-3.747 3.748H3.749a3.752 3.752 0 0 1-3.748-3.747V3.749A3.752 3.752 0 0 1 3.748.001h15.054a3.752 3.752 0 0 1 3.748 3.747v4.999h-2.496V3.751v-.002c0-.69-.56-1.25-1.25-1.25H3.748c-.69.001-1.249.56-1.25 1.25v24.487c0 .688.562 1.248 1.25 1.248h15.054a1.25 1.25 0 0 0 1.25-1.248v-5.001zm6.058-13.135l-1.767 1.767 2.875 2.873h-16.16v2.5h16.16l-2.875 2.873 1.767 1.767 5.89-5.89-5.89-5.89z"/></symbol>
<symbol id="icon-wallet" viewBox="0 0 32 32">
<path fill="var(--color2, #24cca7)" d="M3.755 7.619l16.213-4.538-.859-1.779C18.546.146 17.176-.331 16.048.245L1.536 7.619h2.219zm21.058-4.572c-.195 0-.39.029-.586.087L9.216 7.618h18.431l-.693-2.779c-.266-1.084-1.163-1.792-2.14-1.792z"/><path fill="var(--color3, #4a56e2)" d="M28.359 8.573H1.796c-.821 0-1.514.55-1.729 1.303l-.003.013a1.9 1.9 0 0 0-.064.467v19.863A1.79 1.79 0 0 0 1.796 32h26.56a1.79 1.79 0 0 0 1.796-1.782v-4.974H19.491c-1.685 0-3.055-1.358-3.055-3.029v-3.967c0-.819.331-1.565.866-2.11a3.027 3.027 0 0 1 2.174-.917h10.677v-4.864a1.785 1.785 0 0 0-1.786-1.781h-.007z"/>
<path fill="var(--color3, #4a56e2)" d="M31.413 16.926a1.787 1.787 0 0 0-1.208-.467H19.491c-.992 0-1.797.8-1.797 1.783v3.968a1.79 1.79 0 0 0 1.797 1.781h10.713c.205 0 .398-.035.581-.096.238-.078.449-.206.629-.37A1.77 1.77 0 0 0 32 22.21v-3.968c0-.521-.226-.992-.587-1.316zm-8.17 3.654a.896.896 0 0 1-.896.892h-.601a.896.896 0 0 1-.896-.892v-.592a.87.87 0 0 1 .346-.699.909.909 0 0 1 .552-.192h.6c.493 0 .893.398.896.89v.592z"/>
</symbol>
<symbol id="icon-calendar" viewBox="0 0 18 20">
<path d="M6 9H4V11H6V9ZM10 9H8V11H10V9ZM14 9H12V11H14V9ZM16 2H15V0H13V2H5V0H3V2H2C0.89 2 0.00999999 2.9 0.00999999 4L0 18C0 19.1 0.89 20 2 20H16C17.1 20 18 19.1 18 18V4C18 2.9 17.1 2 16 2ZM16 18H2V7H16V18Z" fill="#4A56E2"/>
</symbol>
<symbol id="icon-home" viewBox="0 0 32 32">
<path  d="M5.053 0c-2.791 0-5.053 2.262-5.053 5.053v21.895c0 2.79 2.262 5.053 5.053 5.053h21.895c2.79 0 5.053-2.262 5.053-5.053v-21.895c0-2.791-2.262-5.053-5.053-5.053h-21.895zM13.418 17.987v6.902h-5.754v-9.203h-3.453l11.509-10.353 11.509 10.353h-3.453v9.203h-5.754v-6.902h-4.604z"></path>
</symbol>
<symbol id="icon-diagrama" viewBox="0 0 32 32">
<path  d="M5.053 0h21.895c2.79 0 5.053 2.262 5.053 5.053v21.895c0 2.79-2.262 5.053-5.053 5.053h-21.895c-2.791 0-5.053-2.262-5.053-5.053v-21.895c0-2.791 2.262-5.053 5.053-5.053zM24.842 13.941c1.081 0 1.965-0.926 1.965-2.058s-0.884-2.059-1.965-2.059c-1.081 0-1.965 0.926-1.965 2.059 0 0.185 0.020 0.36 0.069 0.525l-3.488 3.664c-0.157-0.051-0.334-0.072-0.511-0.072s-0.354 0.021-0.511 0.072l-2.505-2.624c0.049-0.165 0.069-0.35 0.069-0.535 0-1.132-0.884-2.058-1.965-2.058s-1.965 0.926-1.965 2.058c0 0.185 0.020 0.371 0.069 0.535l-4.48 4.683c-0.157-0.051-0.324-0.072-0.501-0.072-1.081 0-1.965 0.926-1.965 2.059s0.884 2.058 1.965 2.058 1.965-0.926 1.965-2.058c0-0.185-0.020-0.36-0.069-0.525l4.47-4.693c0.157 0.051 0.334 0.072 0.511 0.072s0.354-0.021 0.511-0.072l2.505 2.625c-0.049 0.165-0.069 0.35-0.069 0.535 0 1.132 0.884 2.059 1.965 2.059s1.965-0.926 1.965-2.059c0-0.185-0.020-0.371-0.069-0.535l3.498-3.654c0.157 0.051 0.324 0.072 0.501 0.072z"></path>
</symbol>
<symbol id="icon-currency" viewBox="0 0 32 32">
<path  d="M5.053 0c-2.791 0-5.053 2.262-5.053 5.053v21.895c0 2.79 2.262 5.053 5.053 5.053h21.895c2.79 0 5.053-2.262 5.053-5.053v-21.895c0-2.791-2.262-5.053-5.053-5.053h-21.895zM13.265 13.136c0 0.995 0.765 1.635 3.144 2.253s4.925 1.635 4.925 4.61c0 2.148-1.624 3.332-3.667 3.72v2.253h-3.143v-2.274c-2.012-0.43-3.73-1.718-3.856-4.013h2.305c0.115 1.236 0.964 2.2 3.123 2.2 2.316 0 2.829-1.153 2.829-1.876 0-0.974-0.524-1.896-3.143-2.525-2.923-0.702-4.925-1.907-4.925-4.327 0-2.022 1.635-3.342 3.667-3.783v-2.263h3.143v2.295c2.19 0.534 3.29 2.19 3.363 3.992h-2.316c-0.063-1.31-0.754-2.2-2.619-2.2-1.771 0-2.829 0.796-2.829 1.938z"></path>
</symbol>
</defs></svg>